# xmcd CD database file
#
# Track frame offsets:
#	150
#	25027
#	49207
#	125760
#	161690
#	191380
#	212027
#	253602
#	286875
#
# Disc length: 4221 seconds
#
# Revision: 0
# Processed by: cddbd v1.5.2PL0 Copyright (c) Steve Scherf et al.
# Submitted via: CDex 1.70beta3
#
DISCID=7e107b09
DTITLE=Earl Hines - Live At The New School
DYEAR=1973
DGENRE=Jazz
TTITLE0=As Long As I Live
TTITLE1=The Talk Of The Town
TTITLE2=Fats Waller Medley: Black And Blue - Two Sleepy People - Ain't Misbehavin'
TTITLE3=I've Got The World On A String
TTITLE4=International Medley: Canadian Sunset - Lullaby Of Birdland - A Night In Trinadad
TTITLE5=Satin Doll
TTITLE6=West Side Story Medley: I Feel Pretty - Maria - America - There's A Place For Us - Tonight
TTITLE7=Medley: When The Saints Go Marchin' In - Along The Santa Fe Trail - Perdido
TTITLE8=Boogie Woogie On The St. Louis Blues
EXTD=YEAR: 1973
EXTT0=
EXTT1=
EXTT2=
EXTT3=
EXTT4=
EXTT5=
EXTT6=
EXTT7=
EXTT8=
PLAYORDER=
